_______ Visit us at our Semi Public Bittorrent Community ________
  
http://p2pdl.com  _____________________________  http://p2pdl.com


Saheb Biwi Aur Gangster Returns 2013 BRRip 480p x264 Hindi ESubs - ViZNU


Genre: Action | Crime | Drama
Plot: The Royal Scandal, the war for power and fight for money continues with the
return of Saheb Biwi Aur Gangster.  
Director: Tigmanshu Dhulia
Stars: Raj Babbar, Mahie Gill, Mugdha Godse.
Rated: N/a


Info: 
http://www.imdb.com/title/tt2362778/

Trailer:


Format                         : MPEG-4
File size                      : 501 MiB
Duration                       : 2h 22mn
Overall bit rate mode          : Variable
Overall bit rate               : 492 Kbps
Source                         : BluRay.720p.DDR

Video
Format                         : AVC
Bit rate                       : 449 Kbps
Width                          : 720 pixels
Height                         : 304 pixels
Display aspect ratio           : 2.35:1
Frame rate mode                : Constant
Frame rate                     : 24.000 fps
Stream size                    : 457 MiB (91%)
Writing library                : x264 core 130 r2273

Audio
Format                         : AAC
Bit rate mode                  : Variable
Bit rate                       : 39.9 Kbps
Channel(s)                     : 2 channels
Channel positions              : Front: L R
Sampling rate                  : 48.0 KHz
Stream size                    : 40.7 MiB (8%)
Language                       : Hindi

Subtitle                       : Yes(English)

 
http://ultraimg.com/images/us4jy.png 
http://ultraimg.com/images/moKRa.png 
http://ultraimg.com/images/N49EF.png 
http://ultraimg.com/images/3vS4j.png 
http://ultraimg.com/images/DgTV.png 
http://ultraimg.com/images/XjO51.png


----------------------------------------------------------------------------------------------------


Encoded using revolutionary 10bit encoding, which enables us to provide you more crispier 
and sharper images at small sizes, just make sure you follow our instructions without a fault.
Recommend to you to use latest version of VLC player. Install K-Lite Codec Pack or shark007 codecs
in case of any kind of problem in playback (For non-VLC Media Player users). Alternatively, install
Core AVC codecs, the fastest decoder that there is coupled with Community Center Codec Pack and play
on Windows Media Player Classic. Check sample to be sure.
Enjoy!

Encoder Notes:Looking For Early Access To Anything You Can Provide DVDScr, R5, DVDR, BluRay, Direct
Audio, Music Releases and Seedboxes. We require dedicated servers, so as to do more 
and fast releases of movies.
If You Got anything to offer please contact us at "contact@p2pdl.com".

Face book Fan Page:   
http://fbl.me/BC